<?xml version="1.0" encoding="UTF-8" standalone="no"?>
<!-- Generator: Adobe Illustrator 27.5.0, SVG Export Plug-In . SVG Version: 6.00 Build 0)  -->

<svg
   version="1.1"
   id="Layer_1"
   x="0px"
   y="0px"
   viewBox="0 0 934.26691 836.02594"
   xml:space="preserve"
   sodipodi:docname="logo.svg"
   width="934.26691"
   height="836.02594"
   inkscape:version="1.3 (0e150ed6c4, 2023-07-21)"
   xmlns:inkscape="http://www.inkscape.org/namespaces/inkscape"
   xmlns:sodipodi="http://sodipodi.sourceforge.net/DTD/sodipodi-0.dtd"
   xmlns="http://www.w3.org/2000/svg"
   xmlns:svg="http://www.w3.org/2000/svg"><defs
   id="defs4" /><sodipodi:namedview
   id="namedview4"
   pagecolor="#ffffff"
   bordercolor="#000000"
   borderopacity="0.25"
   inkscape:showpageshadow="2"
   inkscape:pageopacity="0.0"
   inkscape:pagecheckerboard="0"
   inkscape:deskcolor="#d1d1d1"
   inkscape:zoom="0.76855469"
   inkscape:cx="467.76112"
   inkscape:cy="418.31766"
   inkscape:window-width="1920"
   inkscape:window-height="1001"
   inkscape:window-x="-9"
   inkscape:window-y="-9"
   inkscape:window-maximized="1"
   inkscape:current-layer="Layer_1" />&#10;<g
   id="artwork_1_"
   transform="translate(-44.866149,-93.98808)">&#10;	<path
   d="m 436.964,151.208 c 91.111,-53.28 203.676,-72.55 306.103,-44.131 61.41,17.351 120.28,51.833 157.937,104.213 -18.503,31.413 -58.918,37.89 -92.351,36.665 -15.788,42.332 -70.277,64.228 -109.85,40.753 -24.081,-13.368 -40.075,-39.233 -42.288,-66.574 -44.869,-6.919 -90.596,-7.835 -135.716,-2.862 22.03,69.717 58.799,140.997 125.182,177.604 -126.052,-10.402 -254.934,18.71 -364.047,82.362 83.587,-33.508 173.473,-55.759 264.052,-51.185 -35.219,18.784 -65.349,50.285 -75.736,89.547 25.748,-19.328 54.726,-33.95 84.738,-45.429 -20.598,37.52 -24.081,82.582 -17.235,124.265 16.099,-33.979 36.828,-66.854 66.102,-91.008 -12.482,28.108 -11.153,59.876 -7.494,89.724 7.274,58.179 1.092,118.66 -22.266,172.75 -26.721,63.652 -75.647,115.959 -132.498,154.129 23.756,-37.122 41.299,-78.201 50.786,-121.284 -64.404,64.153 -146.485,114.424 -237.11,129.267 38.171,-25.924 71.208,-58.901 99.522,-95.197 -93.93,44.366 -195.103,76.813 -298.918,85.164 39.986,-32.357 82.686,-61.277 123.055,-93.146 -6.005,-25.896 -1.667,-52.749 4.043,-78.29 11.952,-51.818 39.115,-99.653 76.43,-137.413 56.201,-55.964 125.578,-95.684 191.915,-138.03 -98.075,37.078 -196.651,84.663 -267.254,164.53 -68.655,78.376 -112.093,178.356 -127.232,281.049 -31.53,-115.028 1.299,-241.419 74.29,-334.034 52.498,-68.566 125.608,-117.61 200.99,-157.833 -89.842,25.275 -173.059,74.379 -238.453,140.999 68.626,-138.048 180.85,-252.751 314.986,-328.178 -47.953,7.392 -92.882,28.653 -132.188,56.6 44.576,-57.001 97.53,-108.627 160.505,-145.027 m 150.13,7.584 c 70.75,9.162 137.427,35.913 204.296,59.417 29.555,10.609 69.878,16.274 92.733,-10.284 -95.906,-29.14 -195.604,-61.13 -297.029,-49.133 M 737.667,270.56 c 17.779,-0.03 34.35,-12.881 40.029,-29.51 -3.821,-0.633 -4.352,3.659 -5.916,6.079 -8.278,16.497 -30.321,25.969 -47.319,17.308 -15.183,-8.277 -20.729,-27.842 -15.64,-43.778 -7.466,-2.243 -14.888,-4.648 -22.221,-7.259 -3.732,29.081 21.276,58.502 51.067,57.16 M 439.81,536.266 c 1.949,2.936 3.821,5.931 5.682,8.94 10.076,-3.201 19.624,-7.775 29.583,-11.288 -1.492,-1.858 -2.951,-3.747 -4.426,-5.606 -10.299,2.567 -20.259,6.478 -30.839,7.954 m -28.402,4.602 c 1.727,3.586 3.41,7.201 5.017,10.846 7.465,-1.668 14.992,-3.157 22.428,-5.002 -2.066,-2.834 -4.161,-5.637 -6.301,-8.41 -7.023,1.076 -14.046,2.123 -21.144,2.566 m 48.514,26.617 c 3.217,3.454 6.241,7.099 9.222,10.787 8.942,-4.323 18.001,-8.381 26.809,-12.984 -2.684,-3.364 -5.312,-6.757 -7.864,-10.195 -9.177,4.603 -18.473,8.985 -28.167,12.392 m -39.011,13.339 c 3.437,3.866 6.787,7.805 9.899,11.938 9.857,-3.113 19.27,-7.452 29.068,-10.713 -3.32,-3.512 -6.566,-7.11 -9.784,-10.712 -9.59,3.556 -19.165,7.274 -29.183,9.487 m -37.788,7.172 c 2.892,5.37 6.522,10.283 9.458,15.625 9.325,-2.848 18.723,-5.475 28.211,-7.732 -3.469,-4.337 -7.23,-8.425 -11.155,-12.319 -8.763,1.916 -17.647,3.142 -26.514,4.426 m 98.266,16.452 c 3.719,3.422 7.54,6.712 11.407,9.987 8.985,-6.285 18.606,-11.582 27.68,-17.734 -3.467,-2.877 -6.742,-5.961 -9.886,-9.162 -9.457,6.093 -19.166,11.804 -29.201,16.909 m -37.137,18.058 c 3.659,3.557 7.377,7.068 11.302,10.359 9.266,-4.618 18.768,-8.853 27.754,-13.988 -3.955,-2.951 -7.732,-6.094 -11.332,-9.442 -9.133,4.603 -18.103,9.532 -27.724,13.071 m 70.057,8.943 c 5.888,2.566 11.759,7.022 18.016,7.672 7.834,-6.256 15.906,-12.232 23.681,-18.577 -4.854,-2.861 -10.019,-5.135 -14.946,-7.862 -9.208,5.841 -17.382,13.16 -26.751,18.767 m -108.64,4.75 c 3.895,4.234 8.026,8.233 11.906,12.497 9.28,-3.94 18.577,-7.819 27.901,-11.641 -3.939,-3.467 -8.115,-6.654 -12.068,-10.093 -9.208,3.218 -18.238,6.936 -27.739,9.237 m 71.723,17.278 c 6.05,3.142 11.76,7.526 18.208,9.591 8.838,-5.104 17.115,-11.39 25.983,-16.599 -5.312,-3.748 -11.495,-5.888 -17.264,-8.734 -8.986,5.237 -17.572,11.155 -26.927,15.742 M 369.238,642.721 c 3.616,5.164 7.585,10.093 10.757,15.582 9.089,-2.76 18.458,-4.471 27.546,-7.23 -4.529,-4.043 -8.97,-8.189 -13.529,-12.201 -8.144,1.916 -16.467,2.964 -24.774,3.849 m 69.717,29.363 c 5.431,4.249 10.992,8.395 16.998,11.804 9.427,-4.324 18.545,-9.385 28.093,-13.516 -5.165,-4.899 -11.996,-7.155 -17.986,-10.771 -8.853,4.573 -18.001,8.469 -27.105,12.483 m -42.139,13.854 c 5.459,4.825 11.272,9.267 16.496,14.356 10.063,-3.246 19.905,-7.216 29.701,-11.199 -5.474,-4.146 -10.889,-8.44 -16.865,-11.834 -9.841,2.539 -19.284,6.729 -29.332,8.677 m 136.643,-7.229 c -7.76,6.536 -14.488,14.268 -22.456,20.626 14.342,4.279 28.861,7.998 43.364,11.731 6.287,-9.591 12.558,-19.196 18.96,-28.714 -13.293,-1.033 -26.572,-2.862 -39.868,-3.643 m -177.204,14.415 c 4.618,5.857 10.018,11.051 14.681,16.895 9.665,-0.945 19.227,-4.84 28.993,-6.272 -5.134,-5.223 -10.608,-10.092 -16.259,-14.755 -9.09,1.727 -18.223,3.112 -27.415,4.132 m 138.149,20.392 c -9.532,5.989 -18.812,12.424 -28.727,17.779 13.485,8.822 27.709,16.672 42.021,24.153 10.241,-8.498 19.625,-17.972 29.702,-26.648 -14.194,-5.473 -28.683,-10.12 -42.996,-15.284 M 211.982,728.3 c 3.378,10.004 7.938,19.55 12.63,28.979 6.979,-5.031 14.297,-9.548 21.615,-14.062 -6.035,-6.699 -11.317,-14.002 -16.451,-21.38 -5.828,2.449 -11.789,4.53 -17.794,6.463 m 201.536,25.216 c 11.243,11.582 23.402,22.249 35.101,33.331 13.708,-4.383 26.618,-12.733 39.928,-18.856 -13.529,-9.443 -27.37,-18.43 -41.432,-27.061 -10.933,4.869 -22.237,8.867 -33.597,12.586 m -150.307,2.566 c -8.382,6.655 -16.894,13.148 -24.892,20.274 11.715,8.557 23.533,17.396 37.108,22.796 4.515,-12.423 9.576,-24.655 14.476,-36.932 -9.061,-1.312 -17.838,-3.924 -26.692,-6.138 m 101.764,6.671 c 6.567,14.06 13.441,27.959 19.948,42.051 14.608,-3.055 29.186,-6.389 43.616,-10.255 -11.199,-12.32 -22.501,-24.553 -34.276,-36.326 -9.664,2.049 -19.447,3.585 -29.288,4.53 m -53.147,0.884 c -3.112,14.282 -5.917,28.64 -8.764,42.982 17.839,0.634 35.691,0.988 53.546,1.461 -4.131,-14.623 -9.104,-28.979 -13.339,-43.558 -10.462,-0.811 -20.967,-0.235 -31.443,-0.885 z"
   id="path1" />&#10;	<path
   d="m 898.289,239.161 c 68.328,22.693 99.742,108.98 69.066,172.485 -9.945,23.281 -26.941,42.935 -46.92,58.222 16.791,-30.381 26.469,-76.918 -4.928,-101.425 -34.01,-26.5 -82.391,-38.613 -124.045,-26.972 49.282,-2.479 110.087,6.107 138.549,51.479 -27.327,2.657 -54.769,0.015 -81.684,-4.337 -35.544,7.909 -67.739,26.071 -99.329,43.585 18.443,-20.184 42.301,-34.29 62.103,-52.939 6.095,-5.637 1.049,-14.578 -4.912,-17.942 -14.74,-9.592 -32.964,-5.579 -49.327,-4.354 -19.3,1.816 -39.38,-8.336 -48.396,-25.659 22.605,24.006 58.399,13.323 83.396,-0.634 33.877,-16.319 81.696,-2.611 105.982,-37.226 10.625,-16.053 8.765,-37.654 0.445,-54.283 z"
   id="path2" />&#10;	<path
   d="m 862.596,264.142 c 9.695,-3.793 20.097,0.117 28.375,5.429 -3.853,3.409 -6.581,7.85 -10.21,11.405 -13.001,-1.608 -25.66,5.725 -31.045,17.604 -5.282,-12.321 -0.31,-29.466 12.88,-34.438 z"
   id="path3" />&#10;	<path
   d="m 650.525,533.033 c 26.131,-41.829 70.705,-68.359 116.224,-84.53 -29.732,27.193 -61.189,53.81 -83.453,87.822 -12.572,18.618 -11.834,41.666 -9.827,63.06 4.16,78.674 -27.724,155.207 -74.334,217.148 37.565,-72.578 59.225,-157.995 39.779,-239.072 -2.111,-15.67 3.57,-31.207 11.611,-44.428 z"
   id="path4" />&#10;</g>&#10;</svg>
